# xmcd
#
# Track frame offsets: 
#        150
#        11657
#        24750
#        40355
#        67280
#        85415
#        101545
#
# Disc length: 1577 seconds
#
# Revision: 0
# Processed by: cddbd v1.5.2PL0 Copyright (c) Steve Scherf et al.
# Submitted via: ExactAudioCopy v0.95b3
#
DISCID=54062707
DTITLE=Graze - Graze
DYEAR=1995
DGENRE=Country
TTITLE0=Big Mama Cook
TTITLE1=Rose It Knows
TTITLE2=Crooked Path
TTITLE3=Straight White Lines
TTITLE4=Elmer Cain
TTITLE5=Rolling On
TTITLE6=It Could Happen Tonight
EXTD=
EXTT0=
EXTT1=
EXTT2=
EXTT3=
EXTT4=
EXTT5=
EXTT6=
PLAYORDER=
